<svg aria-hidden="true" style="position: absolute; width: 0; height: 0; overflow: hidden;" version="1.1" xmlns="http://www.w3.org/2000/svg" xmlns:xlink="http://www.w3.org/1999/xlink">
<defs>
<symbol id="icon-plus-square" viewBox="0 0 32 32">
<path d="M32 12.948v6.104c0 0.459-0.372 0.832-0.832 0.832h-11.283v11.283c0 0.46-0.373 0.832-0.832 0.832h-6.104c-0.459 0-0.832-0.372-0.832-0.832v-11.283h-11.283c-0.46 0-0.832-0.373-0.832-0.832v-6.104c0-0.46 0.372-0.832 0.832-0.832h11.283v-11.283c0-0.46 0.373-0.832 0.832-0.832h6.104c0.459 0 0.832 0.372 0.832 0.832v11.283h11.283c0.46 0 0.832 0.373 0.832 0.832z"></path>
</symbol>
<symbol id="icon-trash" viewBox="0 0 32 32">
<path d="M26.5 4h-5.5v-1c0-1.657-1.343-3-3-3h-4c-1.657 0-3 1.343-3 3v1h-5.5c-1.381 0-2.5 1.119-2.5 2.5v2c0 0.552 0.448 1 1 1h24c0.552 0 1-0.448 1-1v-2c0-1.381-1.119-2.5-2.5-2.5zM13 3c0-0.551 0.449-1 1-1h4c0.551 0 1 0.449 1 1v1h-6z"></path>
<path d="M4.898 11.5c-0.178 0-0.321 0.149-0.312 0.327l0.825 17.315c0.076 1.602 1.393 2.858 2.996 2.858h15.186c1.604 0 2.92-1.255 2.996-2.858l0.825-17.315c0.009-0.178-0.134-0.327-0.312-0.327zM20 14c0-0.553 0.448-1 1-1s1 0.447 1 1v13c0 0.552-0.448 1-1 1s-1-0.448-1-1zM15 14c0-0.553 0.447-1 1-1s1 0.447 1 1v13c0 0.552-0.448 1-1 1s-1-0.448-1-1zM10 14c0-0.553 0.447-1 1-1s1 0.447 1 1v13c0 0.552-0.447 1-1 1s-1-0.448-1-1z"></path>
</symbol>
</defs>
</svg>
