<?xml version="1.0" standalone="no"?>
<!DOCTYPE svg PUBLIC "-//W3C//DTD SVG 20010904//EN"
 "http://www.w3.org/TR/2001/REC-SVG-20010904/DTD/svg10.dtd">
<svg version="1.0" xmlns="http://www.w3.org/2000/svg"
 width="502.000000pt" height="502.000000pt" viewBox="0 0 502.000000 502.000000"
 preserveAspectRatio="xMidYMid meet">
<metadata>
Created by potrace 1.11, written by Peter Selinger 2001-2013
</metadata>
<g transform="translate(0.000000,502.000000) scale(0.100000,-0.100000)"
fill="#000000" stroke="none">
<path d="M4320 4995 c-36 -13 -117 -42 -180 -64 -63 -23 -164 -59 -225 -80
-60 -22 -186 -66 -280 -100 -93 -33 -197 -69 -230 -81 -33 -11 -67 -24 -75
-27 -8 -3 -19 -7 -25 -8 -9 -3 -372 -131 -535 -190 -36 -13 -141 -50 -235 -83
-93 -33 -305 -109 -470 -167 -165 -59 -304 -108 -310 -109 -5 -2 -21 -7 -35
-13 -14 -5 -92 -33 -175 -62 -176 -63 -412 -146 -580 -206 -66 -23 -168 -60
-228 -80 -105 -37 -107 -38 -108 -69 0 -38 0 -461 0 -679 1 -147 2 -157 19
-148 9 5 71 28 137 50 66 23 143 50 170 61 28 10 95 34 150 53 55 20 240 85
410 146 171 60 348 123 395 139 116 40 394 139 455 162 28 10 136 48 240 85
105 36 213 75 240 85 28 10 167 60 310 110 143 50 296 104 340 120 44 16 190
67 325 115 135 48 306 108 380 135 74 27 147 52 163 55 21 6 27 13 27 34 3
142 2 833 -1 835 -2 2 -33 -7 -69 -19z"/>
<path d="M3980 3416 c-47 -18 -193 -72 -325 -121 -132 -48 -269 -99 -305 -112
-36 -14 -76 -28 -90 -33 -14 -4 -106 -38 -205 -75 -99 -36 -236 -87 -305 -112
-69 -25 -136 -50 -150 -56 -14 -6 -27 -11 -30 -11 -3 -1 -25 -9 -50 -18 -78
-29 -810 -298 -925 -339 -60 -22 -121 -45 -135 -51 -14 -5 -79 -30 -145 -53
-66 -24 -158 -58 -205 -75 -47 -18 -104 -39 -128 -47 l-42 -15 0 -365 c1 -340
2 -364 18 -358 9 4 91 33 182 66 91 33 199 73 240 89 120 45 491 182 519 190
15 5 85 31 156 58 72 27 159 59 195 72 36 13 76 27 90 33 14 5 30 11 35 13 6
1 24 8 40 15 17 6 35 13 40 15 15 4 537 195 560 205 22 9 834 309 850 313 6 2
21 7 35 13 14 5 60 22 102 37 l76 27 0 365 c0 200 -3 364 -6 363 -4 -1 -45
-16 -92 -33z"/>
<path d="M4370 2189 c-8 -4 -67 -26 -130 -48 -63 -22 -173 -60 -245 -86 -71
-25 -179 -64 -240 -85 -60 -21 -168 -60 -240 -85 -71 -26 -179 -64 -240 -85
-60 -21 -168 -59 -240 -85 -71 -26 -137 -48 -145 -50 -8 -2 -51 -17 -95 -34
-44 -16 -222 -80 -395 -141 -173 -61 -351 -125 -395 -140 -44 -16 -111 -40
-150 -53 -38 -14 -110 -39 -160 -57 -49 -17 -198 -70 -330 -117 -132 -46 -269
-95 -305 -108 -36 -13 -144 -51 -240 -85 -96 -34 -178 -65 -182 -69 -6 -5 -12
-578 -9 -813 l1 -47 112 40 c62 23 118 42 123 43 6 2 17 6 25 9 15 6 242 86
435 154 55 19 123 43 150 53 28 11 127 46 220 79 325 114 600 212 615 218 8 3
20 7 25 9 11 2 320 111 430 151 104 38 162 59 240 86 39 14 108 38 155 55 47
17 164 58 260 92 96 34 238 84 315 112 77 27 145 51 150 52 6 1 15 4 20 7 8 5
105 39 125 44 3 1 12 4 20 8 19 7 127 46 248 88 l92 33 1 63 c2 250 1 795 -2
797 -2 2 -11 0 -19 -5z"/>
</g>
</svg>
