<svg width="364" height="104" viewBox="0 0 364 104" fill="none" xmlns="http://www.w3.org/2000/svg">
<path d="M73.7914 40.682V48.8662L73.7897 48.8646L39.5685 61.8165L39.5734 53.6315L73.7914 40.682Z" fill="#000819"/>
<path d="M34.851 47.7269L78.5117 31.3193L78.5113 20.7217L34.8481 37.1289L34.851 47.7269Z" fill="#000819"/>
<path d="M34.8481 81.7768L78.5105 65.3669L78.5117 54.7717L34.8481 71.1803V81.7768Z" fill="#000819"/>
<path d="M119.119 62.319C119.691 61.0082 119.976 59.587 119.954 58.1542L119.953 58.1561C119.966 57.0349 119.791 55.9195 119.437 54.8567C119.093 53.8583 118.555 52.9395 117.853 52.1548C117.029 51.2816 116.072 50.5468 115.018 49.9794C113.651 49.2193 112.224 48.5761 110.751 48.0555V48.0586C109.819 47.7135 108.999 47.3812 108.289 47.0618C107.716 46.8098 107.159 46.5216 106.622 46.1979C106.248 45.969 105.899 45.7011 105.582 45.398C105.338 45.1668 105.128 44.9019 104.959 44.6114C104.801 44.3244 104.688 44.0147 104.623 43.6929V43.6883C104.538 43.2651 104.497 42.8338 104.502 42.4013C104.49 41.8627 104.593 41.328 104.806 40.8338C105.017 40.3842 105.333 39.9922 105.725 39.6919C106.199 39.3327 106.737 39.0699 107.31 38.9186C108.058 38.7232 108.828 38.6311 109.601 38.6448C110.769 38.6467 111.933 38.777 113.074 39.0332C114.311 39.3125 115.519 39.7087 116.682 40.2161L117.639 40.6264L117.985 39.6229L119.107 36.4019L119.416 35.5181L118.575 35.1387C117.21 34.5221 115.781 34.0599 114.315 33.7604C112.792 33.4519 111.242 33.2986 109.689 33.3037C108.241 33.2873 106.799 33.487 105.408 33.8961C104.154 34.2686 102.983 34.882 101.959 35.703V35.7073C100.978 36.4849 100.191 37.4837 99.6598 38.6233C99.1347 39.7957 98.8722 41.0714 98.8915 42.3584C98.878 43.5447 99.0533 44.7261 99.4104 45.8563C99.7459 46.9054 100.285 47.8761 100.996 48.7119C101.772 49.5991 102.685 50.3538 103.699 50.9473C104.932 51.6786 106.232 52.2882 107.581 52.7679L107.583 52.7718C108.594 53.1411 109.469 53.487 110.209 53.8115C110.832 54.0791 111.441 54.3817 112.03 54.719L112.033 54.7163C112.436 54.9519 112.816 55.2253 113.169 55.5338C113.43 55.7635 113.66 56.0291 113.851 56.3219H113.847C114.016 56.6059 114.138 56.9151 114.209 57.2384C114.303 57.6534 114.348 58.0781 114.343 58.504C114.358 59.1229 114.236 59.7372 113.986 60.3023C113.739 60.8198 113.372 61.2695 112.914 61.6115C112.341 62.0319 111.689 62.3311 110.999 62.4922C110.042 62.7207 109.06 62.8283 108.077 62.8127C107.369 62.8131 106.661 62.7761 105.957 62.7016C105.243 62.6244 104.532 62.5101 103.829 62.3596C103.108 62.2063 102.417 62.0249 101.757 61.8159C101.112 61.6139 100.477 61.3783 99.856 61.1096L98.4934 60.5168V66.2401L99.054 66.5162C100.28 67.0942 101.581 67.4931 102.919 67.7014C104.582 67.9717 106.265 68.1 107.95 68.0844C109.579 68.1043 111.203 67.8925 112.775 67.4557C114.164 67.0633 115.464 66.4035 116.604 65.5119C117.686 64.6691 118.549 63.5736 119.119 62.319Z" fill="#000819"/>
<path d="M299.337 48.9842H287.004L287.002 48.9822H285.95V54.4279H293.372V62.5964C291.502 62.9751 289.596 63.1647 287.684 63.1619C285.905 63.1966 284.132 62.9301 282.449 62.3749C281.064 61.9025 279.817 61.1175 278.812 60.0852C277.786 58.9903 277.028 57.6887 276.591 56.2752C276.047 54.4968 275.788 52.648 275.824 50.794C275.794 49.0097 276.062 47.2325 276.617 45.5303C277.095 44.1028 277.887 42.7913 278.937 41.6845C279.955 40.6258 281.213 39.8073 282.612 39.2932C284.221 38.7248 285.926 38.4488 287.64 38.4791C288.988 38.4826 290.333 38.63 291.648 38.9184C293.099 39.2394 294.515 39.6894 295.879 40.263L296.829 40.6589L297.247 39.7269L298.741 36.3845L299.165 35.433L298.188 35.0243C296.591 34.356 294.925 33.853 293.217 33.5236C291.462 33.1871 289.676 33.0198 287.887 33.0242C286.159 33.0154 284.436 33.1942 282.75 33.5559C281.183 33.8944 279.669 34.4333 278.25 35.1582C276.885 35.8556 275.637 36.7477 274.548 37.8036C273.46 38.8718 272.545 40.0905 271.831 41.4196C271.084 42.806 270.528 44.2813 270.178 45.8071C269.801 47.4436 269.615 49.1156 269.624 50.792C269.588 53.2892 269.963 55.7761 270.734 58.1611C271.426 60.2572 272.578 62.1869 274.113 63.8159C275.611 65.3895 277.467 66.6071 279.536 67.373C281.8 68.1831 284.201 68.5794 286.617 68.5415C287.804 68.5415 288.944 68.5033 290.029 68.43C291.106 68.3563 292.124 68.2468 293.083 68.1006C294.051 67.9513 294.979 67.7733 295.866 67.5661C296.786 67.3515 297.698 67.1037 298.601 66.8226L299.337 66.5931V48.9842Z" fill="#000819"/>
<path d="M306.112 68.544H327.943V68.5416H328.959V63.1313H311.844V53.2885H328.1V47.9177H311.844V39.5546H328.959V34.1685H306.112V68.544Z" fill="#000819"/>
<path d="M209.141 68.544H230.972V68.5416H231.988V63.1313H214.873V53.2885H231.129V47.9177H214.873V39.5546H231.988V34.1685H209.141V68.544Z" fill="#000819"/>
<path d="M164.7 34.1685H158.88V68.579H180.594V63.1334H164.7V34.1685Z" fill="#000819"/>
<path d="M177.172 39.5535V34.1685H205.73V39.5535H194.365V68.544H188.513V39.5535H177.172Z" fill="#000819"/>
<path fill-rule="evenodd" clip-rule="evenodd" d="M137.201 34.1685H141.803L155.469 68.544H149.314L145.249 58.3003H133.557L129.539 68.544H123.476L137.201 34.1685ZM138.906 42.193L134.9 53.6515H142.901L138.906 42.193Z" fill="#000819"/>
<path fill-rule="evenodd" clip-rule="evenodd" d="M238.762 34.1569V68.5324H244.474C244.474 68.5324 250.036 68.7848 253.485 68.0652C256.294 67.4793 258.14 66.8458 260.47 64.9874C264.442 61.8202 266.205 57.0914 266.205 50.5095C266.205 43.9276 263.857 39.9037 260.464 37.1588C257.976 35.1462 254.782 34.1569 250.32 34.1628C248.597 34.165 244.474 34.1569 244.474 34.1569H238.762ZM244.474 38.7439V63.7407C244.474 63.7407 249.648 63.8836 252.078 63.323C254.887 62.6747 256.627 61.6176 257.976 59.9064C259.325 58.1953 260.464 55.3943 260.464 50.864C260.464 46.3338 259.273 43.2268 256.604 41.0133C253.867 38.7439 250.15 38.7439 247.797 38.7439C245.443 38.7439 244.474 38.7439 244.474 38.7439Z" fill="#000819"/>
</svg>
